<svg viewBox="0 0 51 51" xmlns="http://www.w3.org/2000/svg" fill-rule="evenodd" clip-rule="evenodd" stroke-linejoin="round" stroke-miterlimit="2"><path d="M43.392.246H6.868A6.738 6.738 0 00.13 6.984v36.525a6.738 6.738 0 006.738 6.737h18.014l.03-17.867H20.27a1.095 1.095 0 01-1.095-1.091l-.022-5.76a1.096 1.096 0 011.095-1.099h4.634v-5.565c0-6.458 3.944-9.975 9.705-9.975h4.727c.605 0 1.096.491 1.096 1.096v4.856c0 .605-.49 1.095-1.095 1.095l-2.901.002c-3.133 0-3.74 1.488-3.74 3.673v4.818h6.885c.656 0 1.164.573 1.087 1.224l-.682 5.76a1.096 1.096 0 01-1.088.966h-6.171l-.031 17.867h10.719a6.737 6.737 0 006.737-6.737V6.984A6.738 6.738 0 0043.392.246z" fill="#2e2e2e" fill-rule="nonzero"/></svg>