<svg viewBox="0 0 51 51" xmlns="http://www.w3.org/2000/svg" fill-rule="evenodd" clip-rule="evenodd" stroke-linejoin="round" stroke-miterlimit="2"><g fill="#2e2e2e"><path d="M35.313.246h-20.21C6.89.246.208 6.928.208 15.142v20.209c0 8.214 6.682 14.895 14.895 14.895h20.21c8.213 0 14.895-6.681 14.895-14.895V15.142c0-8.214-6.682-14.896-14.895-14.896zm9.865 35.105c0 5.449-4.417 9.865-9.865 9.865h-20.21c-5.448 0-9.865-4.416-9.865-9.865V15.142c0-5.449 4.417-9.866 9.865-9.866h20.21c5.448 0 9.865 4.417 9.865 9.866v20.209z" fill-rule="nonzero"/><path d="M25.208 12.315c-7.131 0-12.932 5.801-12.932 12.931 0 7.131 5.801 12.932 12.932 12.932S38.14 32.377 38.14 25.246c0-7.13-5.801-12.931-12.932-12.931zm0 20.833a7.902 7.902 0 110-15.803 7.901 7.901 0 110 15.803z" fill-rule="nonzero"/><circle cx="38.165" cy="12.412" r="3.099"/></g></svg>