<svg viewBox="0 0 51 61" xmlns="http://www.w3.org/2000/svg" fill-rule="evenodd" clip-rule="evenodd" stroke-linejoin="round" stroke-miterlimit="2"><g fill="#2e2e2e" fill-rule="nonzero"><path d="M11.396 37.344l25.845 5.49 1.082-5.223-25.845-5.53-1.082 5.263zM10.823 44.174h26.415v5.317H10.823zM14.786 24.824l23.93 11.315 2.217-4.86-23.942-11.345-2.205 4.89z"/><path d="M38.718 36.141l-.002-.002-.003.002h.005zM.286 38.819v21.427h47.48V38.819h-5.283v16.07H5.568v-16.07H.286zM21.418 12.904l20.273 17.182 3.365-4.125L24.783 8.779l-3.365 4.125zM50.286 21.714L34.531.246l-4.228 3.215 15.755 21.468 4.228-3.215z"/></g></svg>